# xmcd CD database file
#
# Track frame offsets:
#	150
#	20873
#	46140
#	59594
#	76471
#	100693
#
# Disc length: 1669 seconds
#
# Revision: 0
# Processed by: cddbd v1.5.1PL0 Copyright (c) Steve Scherf et al.
# Submitted via: CDex 1.51
#
DISCID=48068306
DTITLE=江頭つとむ - TIME MACHINE
DYEAR=2004
DGENRE=Pop
TTITLE0=タイムマシーン
TTITLE1=遠くまで
TTITLE2=八方美人
TTITLE3=たいくつ
TTITLE4=素敵なドライブ
TTITLE5=なんとなく
EXTD=YEAR: 2004
EXTT0=
EXTT1=
EXTT2=
EXTT3=
EXTT4=
EXTT5=
PLAYORDER=
